<svg xmlns="http://www.w3.org/2000/svg" viewBox="0 0 900 675" role="img" aria-labelledby="title desc">
  <title id="title">Simulacao por elementos finitos</title>
  <desc id="desc">Peca mecanica com malha e mapa de tensoes colorido.</desc>
  <defs>
    <linearGradient id="stress" x1="0" x2="1" y1="0" y2="1">
      <stop offset="0" stop-color="#1d4ed8"/>
      <stop offset="0.34" stop-color="#14b8a6"/>
      <stop offset="0.62" stop-color="#facc15"/>
      <stop offset="1" stop-color="#dc2626"/>
    </linearGradient>
    <linearGradient id="bg" x1="0" x2="1" y1="0" y2="1">
      <stop offset="0" stop-color="#f8fafc"/>
      <stop offset="1" stop-color="#dbeafe"/>
    </linearGradient>
    <filter id="shadow" x="-20%" y="-20%" width="140%" height="140%">
      <feDropShadow dx="0" dy="22" stdDeviation="24" flood-color="#172033" flood-opacity="0.16"/>
    </filter>
  </defs>
  <rect width="900" height="675" fill="url(#bg)"/>
  <g stroke="#cbd5e1" stroke-width="1" opacity="0.75">
    <path d="M0 95h900M0 190h900M0 285h900M0 380h900M0 475h900M0 570h900"/>
    <path d="M100 0v675M200 0v675M300 0v675M400 0v675M500 0v675M600 0v675M700 0v675M800 0v675"/>
  </g>
  <g transform="translate(86 150) rotate(-8 365 205)" filter="url(#shadow)">
    <path d="M95 215c0-92 74-166 166-166h258c76 0 137 61 137 137 0 54-32 103-82 125l-70 31 47 91H414l-35-68H254l-35 68H82l58-112c-29-29-45-66-45-106Z" fill="url(#stress)" stroke="#0f172a" stroke-width="7" stroke-linejoin="round"/>
    <circle cx="265" cy="214" r="82" fill="#f8fafc" stroke="#0f172a" stroke-width="7"/>
    <circle cx="265" cy="214" r="42" fill="#dbeafe" stroke="#0f172a" stroke-width="5"/>
    <circle cx="515" cy="188" r="54" fill="#f8fafc" stroke="#0f172a" stroke-width="7"/>
    <circle cx="515" cy="188" r="24" fill="#dbeafe" stroke="#0f172a" stroke-width="5"/>
    <g fill="none" stroke="#ffffff" stroke-width="2.2" opacity="0.86">
      <path d="M109 214h72l84-165 84 165 84-165 82 139 128-2"/>
      <path d="M140 321h104l21-107 114 151 54-151 71 128"/>
      <path d="M181 214l63 107 105-107 30 151 54-151 142 97"/>
      <path d="M181 214l84-165m0 165 84-165m0 165 84-165m0 165 82-26m-82 26 71 128"/>
      <path d="M244 321l105-107 84 0 142 97M140 321l104 0 135 44"/>
      <path d="M181 214h168m84 0h136M254 365h250"/>
      <path d="M140 321l-31-107 72 0m394 97 68-125"/>
    </g>
  </g>
  <g transform="translate(610 470)">
    <rect width="190" height="20" rx="10" fill="url(#stress)" stroke="#ffffff" stroke-width="3"/>
    <text x="0" y="48" fill="#475569" font-family="Arial, sans-serif" font-size="24">baixa tensao</text>
    <text x="112" y="48" fill="#475569" font-family="Arial, sans-serif" font-size="24">alta</text>
  </g>
</svg>
